<?xml version="1.0" encoding="UTF-8"?>
<!DOCTYPE svg PUBLIC "-//W3C//DTD SVG 1.1//EN" "http://www.w3.org/Graphics/SVG/1.1/DTD/svg11.dtd">
<!-- Creator: CorelDRAW -->
<svg xmlns="http://www.w3.org/2000/svg" xml:space="preserve" width="2.75092in" height="1.83393in" style="shape-rendering:geometricPrecision; text-rendering:geometricPrecision; image-rendering:optimizeQuality; fill-rule:evenodd; clip-rule:evenodd"
viewBox="0 0 1.50627 1.00417"
 xmlns:xlink="http://www.w3.org/1999/xlink">
 <defs>
  <style type="text/css">
   <![CDATA[
    .fil1 {fill:white}
    .fil0 {fill:url(#id0)}
   ]]>
  </style>
  <linearGradient id="id0" gradientUnits="userSpaceOnUse" x1="0.680386" y1="-0.000687674" x2="0.825888" y2="1.00486">
   <stop offset="0" style="stop-color:#B6DDC7"/>
   <stop offset="0.678431" style="stop-color:#3BB3C2"/>
   <stop offset="1" style="stop-color:#007CC3"/>
  </linearGradient>
 </defs>
 <g id="Layer_x0020_1">
  <metadata id="CorelCorpID_0Corel-Layer"/>
  <path class="fil0" d="M1.21475 0.378762c-0.0426746,-0.215895 -0.233154,-0.378762 -0.461608,-0.378762 -0.181382,0 -0.338603,0.102925 -0.417369,0.253243 -0.188593,0.0203888 -0.335768,0.180125 -0.335768,0.374362 0,0.208057 0.168513,0.37657 0.376567,0.37657l0.815903 0c0.173223,0 0.313804,-0.140581 0.313804,-0.313804 0,-0.165691 -0.12897,-0.299996 -0.291529,-0.311609z"/>
  <path class="fil1" d="M0.964393 0.273112l-0.422504 0c-0.0291841,0 -0.0525521,0.0236331 -0.0525521,0.0528151l-0.000265153 0.475321 0.105628 -0.105628 0.369693 0c0.0291777,0 0.0528108,-0.0236331 0.0528108,-0.0528108l6.46716e-006 -0.316882c0,-0.0291777 -0.0236353,-0.0528108 -0.052813,-0.0528108l-4.31144e-006 -4.31144e-006zm-0.369693 0.184849l0.31688 0 0 0.0528108 -0.31688 0 0 -0.0528108zm0.211252 0.132031l-0.211252 0 0 -0.052813 0.211252 0 0 0.052813zm0.105628 -0.158441l-0.31688 0 0 -0.0528108 0.31688 0 0 0.0528108z"/>
 </g>
</svg>
