<?xml version="1.0" encoding="UTF-8"?>
<!DOCTYPE svg PUBLIC "-//W3C//DTD SVG 1.1//EN" "http://www.w3.org/Graphics/SVG/1.1/DTD/svg11.dtd">
<!-- Creator: CorelDRAW -->
<svg xmlns="http://www.w3.org/2000/svg" xml:space="preserve" width="1.3353in" height="0.890181in" style="shape-rendering:geometricPrecision; text-rendering:geometricPrecision; image-rendering:optimizeQuality; fill-rule:evenodd; clip-rule:evenodd"
viewBox="0 0 0.354895 0.236593"
 xmlns:xlink="http://www.w3.org/1999/xlink">
 <defs>
  <style type="text/css">
   <![CDATA[
    .fil1 {fill:white}
    .fil0 {fill:url(#id0)}
   ]]>
  </style>
  <linearGradient id="id0" gradientUnits="userSpaceOnUse" x1="0.160306" y1="-0.000161142" x2="0.194588" y2="0.236755">
   <stop offset="0" style="stop-color:VAR(--WHITE)500"/>
   <stop offset="0.678431" style="stop-color:#E77817"/>
   <stop offset="1" style="stop-color:#DA251D"/>
  </linearGradient>
 </defs>
 <g id="Layer_x0020_1">
  <metadata id="CorelCorpID_0Corel-Layer"/>
  <path class="fil0" d="M0.286206 0.0892405c-0.0100547,-0.0508666 -0.0549328,-0.0892405 -0.108759,-0.0892405 -0.0427352,0 -0.0797781,0.0242509 -0.0983356,0.0596666 -0.0444345,0.00480393 -0.0791105,0.0424391 -0.0791105,0.0882035 0,0.0490197 0.0397028,0.0887225 0.0887225,0.0887225l0.192235 0c0.0408119,0 0.0739351,-0.0331221 0.0739351,-0.073934 0,-0.0390383 -0.0303869,-0.0706829 -0.0686875,-0.0734182z"/>
  <path class="fil1" d="M0.22722 0.0643482l-0.0995452 0c-0.00687576,0 -0.0123818,0.00556779 -0.0123818,0.0124435l-6.27828e-005 0.11199 0.0248871 -0.0248871 0.0871027 0c0.00687471,0 0.0124435,-0.00556779 0.0124435,-0.0124425l1.04638e-006 -0.0746602c0,-0.00687471 -0.00556883,-0.0124425 -0.0124435,-0.0124425l-1.04638e-006 -1.04638e-006zm-0.0871027 0.0435514l0.0746602 0 0 0.0124435 -0.0746602 0 0 -0.0124435zm0.0497731 0.0311089l-0.0497731 0 0 -0.0124435 0.0497731 0 0 0.0124435zm0.0248871 -0.0373306l-0.0746602 0 0 -0.0124425 0.0746602 0 0 0.0124425z"/>
 </g>
</svg>
