<?xml version="1.0" encoding="UTF-8"?>
<!DOCTYPE svg PUBLIC "-//W3C//DTD SVG 1.1//EN" "http://www.w3.org/Graphics/SVG/1.1/DTD/svg11.dtd">
<!-- Creator: CorelDRAW -->
<svg xmlns="http://www.w3.org/2000/svg" xml:space="preserve" width="8.40527in" height="1.78269in" style="shape-rendering:geometricPrecision; text-rendering:geometricPrecision; image-rendering:optimizeQuality; fill-rule:evenodd; clip-rule:evenodd"
viewBox="0 0 8.61529 1.82723"
 xmlns:xlink="http://www.w3.org/1999/xlink">
 <defs>
  <style type="text/css">
   <![CDATA[
    .fil0 {fill:#1F1A17}
    .fil1 {fill:#DA251D}
    .fil3 {fill:white}
    .fil2 {fill:url(#id0)}
   ]]>
  </style>
  <linearGradient id="id0" gradientUnits="userSpaceOnUse" x1="1.18533" y1="-0.00119851" x2="1.43882" y2="1.75062">
   <stop offset="0" style="stop-color:#B6DDC7"/>
   <stop offset="0.678431" style="stop-color:#3BB3C2"/>
   <stop offset="1" style="stop-color:#007CC3"/>
  </linearGradient>
 </defs>
 <g id="Layer_x0020_1">
  <metadata id="CorelCorpID_0Corel-Layer"/>
  <g id="_136686328">
   <path id="_94133296" class="fil0" d="M8.61529 1.04871l0 -0.137623 -0.422153 -0.344081 0 -0.378474c0,-0.0571127 -0.0353499,-0.103229 -0.079158,-0.103229 -0.0438081,0 -0.079158,0.0461002 -0.079158,0.103229l0 0.378474 -0.422153 0.344069 0 0.137623 0.422153 -0.172032 0 0.378474 -0.105537 0.103229 0 0.103229 0.184695 -0.0688194 0.184695 0.0688194 0 -0.103229 -0.105537 -0.103229 0 -0.378462 0.422153 0.172032z"/>
   <path id="_136685584" class="fil1" d="M7.44863 1.4545c-0.0216095,0 -0.0563339,-0.0211252 -0.103681,-0.0633756 -0.0437112,0.0208831 -0.0820756,0.0366655 -0.115339,0.0473511 -0.0332677,0.0106816 -0.0614346,0.0160245 -0.084747,0.0160245 -0.114125,0 -0.200082,-0.0305962 -0.257142,-0.0917887 -0.0570643,-0.0611885 -0.0857195,-0.152731 -0.0857195,-0.274628 0,-0.114367 0.0422545,-0.212225 0.126509,-0.29357 0.0845049,-0.0813452 0.185514,-0.121893 0.303041,-0.121893 0.045164,0 0.0973697,0.0126267 0.156617,0.0381222 0.0716361,0.0303501 0.107329,0.0658049 0.107329,0.106352 0,0.0167589 -0.00534284,0.0315688 -0.0162707,0.0441955 -0.00461244,0.0189421 -0.00825639,0.0424925 -0.0109238,0.0709016 -0.00267546,0.0284131 -0.00388607,0.0616767 -0.00388607,0.0995568 0,0.0898437 0.00631133,0.154434 0.0191802,0.193771 0.00145677,0.00437032 0.0123846,0.0286512 0.0327834,0.0733309 0.0184498,0.0403094 0.0276787,0.0633756 0.0276787,0.0689606 0,0.0250113 -0.00971316,0.0456482 -0.0288933,0.0619189 -0.0191842,0.0165128 -0.0412819,0.0247692 -0.0665353,0.0247692z"/>
   <path id="_136694344" class="fil0" d="M7.27234 0.974209c0,-0.01506 0.000972526,-0.0325413 0.00315567,-0.0522097 0.00218718,-0.0196684 0.00534284,-0.0417621 0.00947104,-0.0658009 -0.00947104,-0.0048586 -0.0179695,-0.00826042 -0.0252534,-0.0104436 -0.00728386,-0.00218718 -0.0135992,-0.00315567 -0.018938,-0.00315567 -0.0643482,0 -0.120682,0.0252534 -0.169002,0.0757602 -0.0483237,0.0505068 -0.0726045,0.109024 -0.0726045,0.175555 0,0.0633756 0.0114121,0.111211 0.0342362,0.143264 0.022586,0.032053 0.0568222,0.0480775 0.102228,0.0480775 0.0293816,0 0.0573064,-0.00485456 0.0835283,-0.0145677 0.0262259,-0.00971316 0.0509911,-0.0240388 0.0743034,-0.0429808 -0.0140835,-0.11291 -0.0211252,-0.197411 -0.0211252,-0.253499z"/>
   <path id="_136691056" class="fil0" d="M6.20442 0.76441c0.0347204,-0.0342362 0.071632,-0.0597357 0.111211,-0.0764866 0.039579,-0.0167549 0.0820715,-0.0252534 0.126993,-0.0252534 0.0811031,0 0.139378,0.0228241 0.175075,0.0682302 0.026464,0.0342362 0.0427347,0.086688 0.0483196,0.157348 0.0024293,0.058279 0.00510072,0.116796 0.00776811,0.175801 0.00753002,0.0762485 0.0123846,0.122869 0.0143296,0.139378 0.00655346,0.052694 0.0145677,0.0985843 0.0240388,0.138167 0.0024293,0.00995528 0.00364395,0.0186959 0.00364395,0.0262219 0,0.0264681 -0.0102014,0.0485618 -0.0303541,0.0658049 -0.0201567,0.0172391 -0.0437072,0.0259798 -0.0706635,0.0259798 -0.0478314,0 -0.0789118,-0.0237966 -0.0932415,-0.0711437 -0.011408,-0.0383644 -0.0218516,-0.0925151 -0.0313226,-0.162206 -0.00849851,-0.0670155 -0.0128688,-0.121893 -0.0128688,-0.165116 0,-0.0119003 0.000726368,-0.0298658 0.00194102,-0.0536625 0.000972526,-0.0240428 0.00169889,-0.0420083 0.00169889,-0.0539046 0,-0.0349666 -0.000484246,-0.0553654 -0.00145677,-0.0611925 -0.00436628,-0.0259798 -0.0165087,-0.0390948 -0.0369076,-0.0390948 -0.0526899,0 -0.100283,0.0242809 -0.143022,0.0726045 -0.0218516,0.0242809 -0.0517174,0.0701752 -0.0895975,0.138163 0,0.171677 -0.00825639,0.275116 -0.0247692,0.310325 -0.0184538,0.0388486 -0.0478354,0.0582749 -0.0881448,0.0582749 -0.0267102,0 -0.0502607,-0.00898275 -0.0709016,-0.0267102 -0.020641,-0.0177234 -0.0308384,-0.039579 -0.0308384,-0.0658049 0,-0.00898275 0.00267142,-0.0216095 0.00776811,-0.0376339 0.00340182,-0.0104436 0.00607325,-0.0745496 0.00849851,-0.192072 -0.00242526,-0.0954287 -0.00194102,-0.253987 0.00146081,-0.475925l0.00145677 -0.0235545c0.00267142,-0.0560918 0.00412416,-0.0934876 0.00412416,-0.112426 0,-0.0145677 -0.00218314,-0.0364233 -0.00655346,-0.0650745 -0.00461244,-0.0286552 -0.00679961,-0.0505068 -0.00679961,-0.0650786 0,-0.0269523 0.00971316,-0.0492881 0.0291395,-0.0665313 0.0194263,-0.0172391 0.0429768,-0.0259798 0.0704174,-0.0259798 0.0468629,0 0.0784276,0.0250072 0.0944561,0.0752719 0.00898679,0.0286552 0.0135992,0.0721203 0.0135992,0.130879 0,0.0473511 -0.00145677,0.0956708 -0.00412819,0.144479 -0.00291354,0.0463786 -0.00437032,0.092269 -0.00437032,0.137921z"/>
   <path id="_136694392" class="fil0" d="M5.7149 1.43231c-0.0940001,0.0454585 -0.185595,0.0568464 -0.274999,0.0342684 -0.0943835,-0.0239419 -0.163772,-0.0820917 -0.208387,-0.17434 -0.0411205,-0.0850335 -0.0533477,-0.187278 -0.0369964,-0.30685 0.0184175,-0.136489 0.0728184,-0.226453 0.163316,-0.270217 0.0443811,-0.0214642 0.101998,-0.0344944 0.172981,-0.0394216 0.0864096,-0.00537513 0.138865,0.011061 0.157368,0.0493204 0.010149,0.020984 0.0119205,0.0430535 0.00509265,0.0663134 -0.006844,0.0248862 -0.0225053,0.0432512 -0.04677,0.0549861 -0.018361,0.00887783 -0.0452003,0.00972526 -0.0806148,0.00230017 -0.0354105,-0.00741703 -0.0790813,0.00156169 -0.13067,0.0265124 -0.0327915,0.015859 -0.0527747,0.0654417 -0.0600626,0.14853 -0.00659381,0.080066 0.00104516,0.142723 0.022929,0.187972 0.02167,0.0448089 0.054974,0.0724028 0.099916,0.0822289 0.0423392,0.00946296 0.0889156,0.0020419 0.139196,-0.0222713 0.0286351,-0.0138494 0.0583233,-0.0416935 0.0892868,-0.0836413 0.0308505,-0.0416209 0.0517941,-0.0652359 0.0629438,-0.0706272 0.0231711,-0.0112062 0.0468629,-0.0124169 0.071293,-0.00372869 0.0244302,0.00868414 0.0419316,0.0236836 0.0522904,0.0451075 0.0160689,0.0332273 -0.00404345,0.0842224 -0.0605468,0.152549 -0.0506521,0.060906 -0.0964698,0.101135 -0.137566,0.121009z"/>
   <path id="_136699840" class="fil0" d="M5.07582 0.814186c-0.0517174,0.107813 -0.133551,0.276815 -0.245246,0.507251 -0.0607082,0.123838 -0.107087,0.22655 -0.138894,0.308138 -0.00995528,0.0293816 -0.0254996,0.0728467 -0.0468629,0.130883 -0.0170011,0.0444336 -0.0473511,0.0667734 -0.0910583,0.0667734 -0.0269523,0 -0.0507489,-0.00874467 -0.0711478,-0.0262259 -0.0203948,-0.0177234 -0.0305922,-0.039579 -0.0305922,-0.0662892 0,-0.0439493 0.0502607,-0.174829 0.15079,-0.391912 -0.0522057,-0.102955 -0.135008,-0.254471 -0.248164,-0.454557 -0.0114121,-0.0179655 -0.0230662,-0.0361812 -0.0349666,-0.0548771 -0.0128688,-0.0216135 -0.0191802,-0.04152 -0.0191802,-0.0597357 0,-0.0254955 0.0101974,-0.0480775 0.0305962,-0.0675038 0.0203948,-0.0194223 0.0439453,-0.0291354 0.0704133,-0.0291354 0.0313267,0 0.0558497,0.0116542 0.073335,0.0349666 0.0672617,0.0895975 0.145693,0.224363 0.235291,0.404535 0.0507489,-0.112184 0.0815873,-0.180172 0.0925151,-0.203238 0.0337519,-0.0706595 0.0665313,-0.132825 0.0988264,-0.186487 0.0203988,-0.0342362 0.0483237,-0.0512332 0.0840166,-0.0512332 0.0264681,0 0.0502647,0.00898275 0.0711437,0.0269523 0.0208831,0.0182117 0.0313267,0.0400632 0.0313267,0.0662892 0,0.0135952 -0.00412819,0.0288974 -0.0121425,0.0454061z"/>
   <path id="_136699480" class="fil0" d="M4.18054 1.44479c-0.0373959,0 -0.0660471,-0.0179695 -0.0854734,-0.0541508 -0.0230662,-0.0432229 -0.0580328,-0.09421 -0.104411,-0.152973 -0.0721163,-0.0915466 -0.110485,-0.140108 -0.114609,-0.145935 -0.0378841,0.0281669 -0.0692068,0.0495343 -0.0939719,0.064106 -0.0048586,0.0660471 -0.00704174,0.128934 -0.00704174,0.189154 0,0.0276827 -0.00922891,0.0502647 -0.0276827,0.0684723 -0.0186959,0.0179736 -0.0420083,0.0269563 -0.0704174,0.0269563 -0.0667734,0 -0.100287,-0.0398252 -0.100287,-0.119467 0,-0.037638 0.00267546,-0.0934876 0.00826042,-0.168275 0.00533881,-0.0747877 0.00801023,-0.130879 0.00801023,-0.168271 0,-0.0687225 0.000972526,-0.147392 0.00315567,-0.235779 0.00218718,-0.0883869 0.00315567,-0.166576 0.00315567,-0.234565 0,-0.0203988 -0.000968491,-0.0444336 -0.00315567,-0.0721163 -0.00218314,-0.0276827 -0.00315567,-0.0517215 -0.00315567,-0.0721203 0,-0.0276787 0.00922891,-0.0502607 0.0276827,-0.0679881 0.0186959,-0.0177274 0.0420083,-0.0267102 0.0706595,-0.0267102 0.0284131,0 0.0517215,0.00898275 0.0704174,0.0267102 0.0184538,0.0177274 0.0276827,0.0403094 0.0276827,0.06775 0,0.0208791 0.00121465,0.0456442 0.00363991,0.0740573 0.00218718,0.0284091 0.00340182,0.0531782 0.00340182,0.0740573 0,0.0563379 -0.00145677,0.123111 -0.00412819,0.20057 -0.00291354,0.0738192 -0.00412819,0.139866 -0.00364395,0.197653 0.0645943,-0.0497764 0.16269,-0.140346 0.294542,-0.271714 0.0208831,-0.0208791 0.0446757,-0.0313226 0.0711478,-0.0313226 0.0264681,0 0.0500185,0.00971316 0.0704133,0.0291395 0.0203988,0.0194263 0.0306003,0.0420083 0.0306003,0.067746 0,0.0216135 -0.00922891,0.0427387 -0.0276827,0.0631335 -0.0560918,0.0626493 -0.122627,0.128208 -0.19984,0.196442l0.147876 0.190853c0.071628,0.0951865 0.107325,0.158808 0.107325,0.190615 0,0.0262259 -0.0104395,0.0483196 -0.0313226,0.0665353 -0.0208831,0.0182076 -0.0446797,0.0274365 -0.0711478,0.0274365z"/>
   <path id="_136694752" class="fil0" d="M3.37365 0.894563c-0.047105,0 -0.0752719,-0.0196684 -0.084743,-0.0590053 -0.0189421,-0.0031597 -0.0383644,-0.0048586 -0.058279,-0.0048586 -0.114367,0 -0.171431,0.0155402 -0.171431,0.0468629 0,0.0184578 0.0344823,0.0434651 0.103201,0.0747877 0.0939719,0.0432229 0.157348,0.0767327 0.190611,0.101018 0.0687225,0.0497764 0.103201,0.105868 0.103201,0.168517 0,0.0815873 -0.0378801,0.143506 -0.113882,0.185753 -0.0611925,0.0337519 -0.136222,0.0505068 -0.225578,0.0505068 -0.0628914,0 -0.120682,-0.00970912 -0.172888,-0.0291354 -0.0711478,-0.0267102 -0.106599,-0.0658049 -0.106599,-0.117526 0,-0.0473511 0.0281669,-0.0711478 0.084743,-0.0711478 0.0218556,0 0.0534204,0.00679961 0.0944561,0.020641 0.0412819,0.0138414 0.0730888,0.020641 0.0954287,0.020641 0.0964012,0 0.144721,-0.0194263 0.145205,-0.0582749 0,-0.0242849 -0.0335098,-0.0509951 -0.100283,-0.0803767 -0.097858,-0.0432229 -0.160261,-0.0743034 -0.187944,-0.0932415 -0.0667734,-0.0468669 -0.100283,-0.104169 -0.100283,-0.171431 0,-0.0954287 0.0505068,-0.159535 0.15152,-0.192798 0.0592474,-0.0194263 0.149333,-0.0291395 0.270257,-0.0291395 0.0473471,0 0.0825598,0.00607325 0.105384,0.0184538 0.0313226,0.0165128 0.0468629,0.047109 0.0468629,0.0917887 0,0.0852272 -0.0230662,0.127966 -0.0689606,0.127966z"/>
  </g>
  <path class="fil2" d="M2.11627 0.659861c-0.0743478,-0.376122 -0.406189,-0.659861 -0.804191,-0.659861 -0.315994,0 -0.589896,0.179308 -0.727119,0.441188 -0.328553,0.0355194 -0.584957,0.313803 -0.584957,0.652194 0,0.362462 0.293574,0.65604 0.656036,0.65604l1.42142 0c0.301778,0 0.546693,-0.244915 0.546693,-0.546693 0,-0.288655 -0.224686,-0.522638 -0.507885,-0.542867z"/>
  <path class="fil3" d="M1.68011 0.475799l-0.736065 0c-0.0508377,0 -0.0915507,0.041173 -0.0915507,0.0920147l-0.000464069 0.82808 0.184021 -0.184021 0.644059 0c0.0508337,0 0.0920067,-0.041173 0.0920067,-0.0920067l8.07076e-006 -0.552052c0,-0.0508296 -0.041173,-0.0920067 -0.0920067,-0.0920067l-8.07076e-006 -8.07076e-006zm-0.644059 0.322035l0.552052 0 0 0.0920067 -0.552052 0 0 -0.0920067zm0.368031 0.230017l-0.368031 0 0 -0.0920026 0.368031 0 0 0.0920026zm0.184021 -0.276024l-0.552052 0 0 -0.0920067 0.552052 0 0 0.0920067z"/>
 </g>
</svg>
